HIERARCHY
ROOT mixamorig:Hips
{
	OFFSET -0.000008 104.274872 1.554316
	CHANNELS 6 Xposition Yposition Zposition Xrotation Yrotation Zrotation
	JOINT mixamorig:Spine
	{
		OFFSET -0.000005 10.181595 0.131519
		CHANNELS 6 Xposition Yposition Zposition Xrotation Yrotation Zrotation
		JOINT mixamorig:Spine1
		{
			OFFSET -0.000000 9.893959 -1.470707
			CHANNELS 6 Xposition Yposition Zposition Xrotation Yrotation Zrotation
			JOINT mixamorig:Spine2
			{
				OFFSET -0.000000 9.220757 -1.370641
				CHANNELS 6 Xposition Yposition Zposition Xrotation Yrotation Zrotation
				JOINT mixamorig:Neck
				{
					OFFSET 0.000001 16.740417 -2.049036
					CHANNELS 6 Xposition Yposition Zposition Xrotation Yrotation Zrotation
					JOINT mixamorig:Head
					{
						OFFSET 0.000000 9.617874 1.685006
						CHANNELS 6 Xposition Yposition Zposition Xrotation Yrotation Zrotation
						JOINT mixamorig:HeadTop_End
						{
							OFFSET 0.000002 22.037354 7.501101
							CHANNELS 6 Xposition Yposition Zposition Xrotation Yrotation Zrotation
							End Site
							{
								OFFSET 0.000168 2310.654297 -282.823242
							}
						}
					}
				}
				JOINT mixamorig:RightShoulder
				{
					OFFSET -4.569970 11.014908 -2.160885
					CHANNELS 6 Xposition Yposition Zposition Xrotation Yrotation Zrotation
					JOINT mixamorig:RightArm
					{
						OFFSET -10.592851 -0.524811 -2.232101
						CHANNELS 6 Xposition Yposition Zposition Xrotation Yrotation Zrotation
						JOINT mixamorig:RightForeArm
						{
							OFFSET -27.841511 0.000031 -0.000004
							CHANNELS 6 Xposition Yposition Zposition Xrotation Yrotation Zrotation
							JOINT mixamorig:RightHand
							{
								OFFSET -28.328831 -0.000015 0.000015
								CHANNELS 6 Xposition Yposition Zposition Xrotation Yrotation Zrotation
								JOINT mixamorig:RightHandThumb1
								{
									OFFSET -2.464806 -1.573990 2.681852
									CHANNELS 6 Xposition Yposition Zposition Xrotation Yrotation Zrotation
									JOINT mixamorig:RightHandThumb2
									{
										OFFSET -3.215179 -1.872803 1.924282
										CHANNELS 6 Xposition Yposition Zposition Xrotation Yrotation Zrotation
										JOINT mixamorig:RightHandThumb3
										{
											OFFSET -2.654831 -1.527969 1.512609
											CHANNELS 6 Xposition Yposition Zposition Xrotation Yrotation Zrotation
											JOINT mixamorig:RightHandThumb4
											{
												OFFSET -2.018814 -1.152008 1.108052
												CHANNELS 6 Xposition Yposition Zposition Xrotation Yrotation Zrotation
												End Site
												{
													OFFSET -188.809540 -114.533607 132.431396
												}
											}
										}
									}
								}
								JOINT mixamorig:RightHandIndex1
								{
									OFFSET -9.108284 -0.517868 2.259835
									CHANNELS 6 Xposition Yposition Zposition Xrotation Yrotation Zrotation
									JOINT mixamorig:RightHandIndex2
									{
										OFFSET -3.699989 0.000000 0.001215
										CHANNELS 6 Xposition Yposition Zposition Xrotation Yrotation Zrotation
										JOINT mixamorig:RightHandIndex3
										{
											OFFSET -2.850006 0.000031 -0.000522
											CHANNELS 6 Xposition Yposition Zposition Xrotation Yrotation Zrotation
											JOINT mixamorig:RightHandIndex4
											{
												OFFSET -2.772186 -0.000015 -0.000020
												CHANNELS 6 Xposition Yposition Zposition Xrotation Yrotation Zrotation
												End Site
												{
													OFFSET -277.218445 0.000000 -0.050231
												}
											}
										}
									}
								}
								JOINT mixamorig:RightHandMiddle1
								{
									OFFSET -9.532516 -0.000031 -0.000023
									CHANNELS 6 Xposition Yposition Zposition Xrotation Yrotation Zrotation
									JOINT mixamorig:RightHandMiddle2
									{
										OFFSET -3.700005 -0.000015 0.003713
										CHANNELS 6 Xposition Yposition Zposition Xrotation Yrotation Zrotation
										JOINT mixamorig:RightHandMiddle3
										{
											OFFSET -2.949974 0.000015 -0.002054
											CHANNELS 6 Xposition Yposition Zposition Xrotation Yrotation Zrotation
											JOINT mixamorig:RightHandMiddle4
											{
												OFFSET -2.946640 0.000000 -0.000156
												CHANNELS 6 Xposition Yposition Zposition Xrotation Yrotation Zrotation
												End Site
												{
													OFFSET -294.664337 0.000000 -0.113670
												}
											}
										}
									}
								}
								JOINT mixamorig:RightHandRing1
								{
									OFFSET -9.103600 -0.043076 -1.865134
									CHANNELS 6 Xposition Yposition Zposition Xrotation Yrotation Zrotation
									JOINT mixamorig:RightHandRing2
									{
										OFFSET -3.379288 0.000000 -0.001055
										CHANNELS 6 Xposition Yposition Zposition Xrotation Yrotation Zrotation
										JOINT mixamorig:RightHandRing3
										{
											OFFSET -2.889687 -0.000015 0.000379
											CHANNELS 6 Xposition Yposition Zposition Xrotation Yrotation Zrotation
											JOINT mixamorig:RightHandRing4
											{
												OFFSET -2.638809 -0.000015 0.000941
												CHANNELS 6 Xposition Yposition Zposition Xrotation Yrotation Zrotation
												End Site
												{
													OFFSET -263.880371 0.000000 0.516020
												}
											}
										}
									}
								}
								JOINT mixamorig:RightHandPinky1
								{
									OFFSET -8.076683 -0.486710 -3.806280
									CHANNELS 6 Xposition Yposition Zposition Xrotation Yrotation Zrotation
									JOINT mixamorig:RightHandPinky2
									{
										OFFSET -3.600014 -0.000015 -0.003747
										CHANNELS 6 Xposition Yposition Zposition Xrotation Yrotation Zrotation
										JOINT mixamorig:RightHandPinky3
										{
											OFFSET -2.099983 0.000000 -0.005739
											CHANNELS 6 Xposition Yposition Zposition Xrotation Yrotation Zrotation
											JOINT mixamorig:RightHandPinky4
											{
												OFFSET -2.115768 -0.000031 -0.003680
												CHANNELS 6 Xposition Yposition Zposition Xrotation Yrotation Zrotation
												End Site
												{
													OFFSET -211.577087 0.000000 -0.350686
												}
											}
										}
									}
								}
							}
						}
					}
				}
				JOINT mixamorig:LeftShoulder
				{
					OFFSET 4.570447 11.014725 -2.160855
					CHANNELS 6 Xposition Yposition Zposition Xrotation Yrotation Zrotation
					JOINT mixamorig:LeftArm
					{
						OFFSET 10.592371 -0.524597 -2.232119
						CHANNELS 6 Xposition Yposition Zposition Xrotation Yrotation Zrotation
						JOINT mixamorig:LeftForeArm
						{
							OFFSET 27.841532 -0.000031 0.000026
							CHANNELS 6 Xposition Yposition Zposition Xrotation Yrotation Zrotation
							JOINT mixamorig:LeftHand
							{
								OFFSET 28.328846 -0.000061 0.000022
								CHANNELS 6 Xposition Yposition Zposition Xrotation Yrotation Zrotation
								JOINT mixamorig:LeftHandThumb1
								{
									OFFSET 2.466141 -1.576172 2.681732
									CHANNELS 6 Xposition Yposition Zposition Xrotation Yrotation Zrotation
									JOINT mixamorig:LeftHandThumb2
									{
										OFFSET 3.217812 -1.872070 1.916482
										CHANNELS 6 Xposition Yposition Zposition Xrotation Yrotation Zrotation
										JOINT mixamorig:LeftHandThumb3
										{
											OFFSET 2.656029 -1.528778 1.514513
											CHANNELS 6 Xposition Yposition Zposition Xrotation Yrotation Zrotation
											JOINT mixamorig:LeftHandThumb4
											{
												OFFSET 2.020889 -1.154053 1.115139
												CHANNELS 6 Xposition Yposition Zposition Xrotation Yrotation Zrotation
												End Site
												{
													OFFSET 190.885437 -115.081749 130.048782
												}
											}
										}
									}
								}
								JOINT mixamorig:LeftHandIndex1
								{
									OFFSET 9.109314 -0.518021 2.259871
									CHANNELS 6 Xposition Yposition Zposition Xrotation Yrotation Zrotation
									JOINT mixamorig:LeftHandIndex2
									{
										OFFSET 3.699989 0.000000 -0.000322
										CHANNELS 6 Xposition Yposition Zposition Xrotation Yrotation Zrotation
										JOINT mixamorig:LeftHandIndex3
										{
											OFFSET 2.850006 0.000000 0.000352
											CHANNELS 6 Xposition Yposition Zposition Xrotation Yrotation Zrotation
											JOINT mixamorig:LeftHandIndex4
											{
												OFFSET 2.774864 -0.000031 -0.000027
												CHANNELS 6 Xposition Yposition Zposition Xrotation Yrotation Zrotation
												End Site
												{
													OFFSET 277.486267 0.000000 -0.009857
												}
											}
										}
									}
								}
								JOINT mixamorig:LeftHandMiddle1
								{
									OFFSET 9.533394 0.000061 0.000044
									CHANNELS 6 Xposition Yposition Zposition Xrotation Yrotation Zrotation
									JOINT mixamorig:LeftHandMiddle2
									{
										OFFSET 3.699989 -0.000015 -0.000231
										CHANNELS 6 Xposition Yposition Zposition Xrotation Yrotation Zrotation
										JOINT mixamorig:LeftHandMiddle3
										{
											OFFSET 2.949997 -0.000015 -0.000059
											CHANNELS 6 Xposition Yposition Zposition Xrotation Yrotation Zrotation
											JOINT mixamorig:LeftHandMiddle4
											{
												OFFSET 2.952896 0.000031 0.000063
												CHANNELS 6 Xposition Yposition Zposition Xrotation Yrotation Zrotation
												End Site
												{
													OFFSET 295.289337 0.000000 0.022810
												}
											}
										}
									}
								}
								JOINT mixamorig:LeftHandRing1
								{
									OFFSET 9.104523 -0.042999 -1.865074
									CHANNELS 6 Xposition Yposition Zposition Xrotation Yrotation Zrotation
									JOINT mixamorig:LeftHandRing2
									{
										OFFSET 3.150009 -0.000031 0.000043
										CHANNELS 6 Xposition Yposition Zposition Xrotation Yrotation Zrotation
										JOINT mixamorig:LeftHandRing3
										{
											OFFSET 2.949982 -0.000015 0.000040
											CHANNELS 6 Xposition Yposition Zposition Xrotation Yrotation Zrotation
											JOINT mixamorig:LeftHandRing4
											{
												OFFSET 2.644348 0.000000 0.000057
												CHANNELS 6 Xposition Yposition Zposition Xrotation Yrotation Zrotation
												End Site
												{
													OFFSET 264.434631 0.000000 0.012105
												}
											}
										}
									}
								}
								JOINT mixamorig:LeftHandPinky1
								{
									OFFSET 8.077789 -0.486847 -3.806259
									CHANNELS 6 Xposition Yposition Zposition Xrotation Yrotation Zrotation
									JOINT mixamorig:LeftHandPinky2
									{
										OFFSET 3.599953 0.000031 0.014727
										CHANNELS 6 Xposition Yposition Zposition Xrotation Yrotation Zrotation
										JOINT mixamorig:LeftHandPinky3
										{
											OFFSET 2.100021 0.000015 0.007705
											CHANNELS 6 Xposition Yposition Zposition Xrotation Yrotation Zrotation
											JOINT mixamorig:LeftHandPinky4
											{
												OFFSET 2.125504 0.000031 0.007517
												CHANNELS 6 Xposition Yposition Zposition Xrotation Yrotation Zrotation
												End Site
												{
													OFFSET 212.550781 0.000000 0.625752
												}
											}
										}
									}
								}
							}
						}
					}
				}
			}
		}
	}
	JOINT mixamorig:RightUpLeg
	{
		OFFSET -8.207787 -6.751648 -1.599560
		CHANNELS 6 Xposition Yposition Zposition Xrotation Yrotation Zrotation
		JOINT mixamorig:RightLeg
		{
			OFFSET -0.000002 -44.370117 0.345942
			CHANNELS 6 Xposition Yposition Zposition Xrotation Yrotation Zrotation
			JOINT mixamorig:RightFoot
			{
				OFFSET 0.000003 -44.423679 -3.043532
				CHANNELS 6 Xposition Yposition Zposition Xrotation Yrotation Zrotation
				JOINT mixamorig:RightToeBase
				{
					OFFSET -0.000002 -8.728671 10.710558
					CHANNELS 6 Xposition Yposition Zposition Xrotation Yrotation Zrotation
					JOINT mixamorig:RightToe_End
					{
						OFFSET -0.000001 -0.000679 9.278119
						CHANNELS 6 Xposition Yposition Zposition Xrotation Yrotation Zrotation
						End Site
						{
							OFFSET 0.000000 -0.067690 927.812134
						}
					}
				}
			}
		}
	}
	JOINT mixamorig:LeftUpLeg
	{
		OFFSET 8.207793 -6.751686 -1.599556
		CHANNELS 6 Xposition Yposition Zposition Xrotation Yrotation Zrotation
		JOINT mixamorig:LeftLeg
		{
			OFFSET -0.000004 -44.370014 0.346954
			CHANNELS 6 Xposition Yposition Zposition Xrotation Yrotation Zrotation
			JOINT mixamorig:LeftFoot
			{
				OFFSET -0.000001 -44.423672 -3.044401
				CHANNELS 6 Xposition Yposition Zposition Xrotation Yrotation Zrotation
				JOINT mixamorig:LeftToeBase
				{
					OFFSET -0.000002 -8.728669 10.710558
					CHANNELS 6 Xposition Yposition Zposition Xrotation Yrotation Zrotation
					JOINT mixamorig:LeftToe_End
					{
						OFFSET -0.000003 -0.000679 9.278133
						CHANNELS 6 Xposition Yposition Zposition Xrotation Yrotation Zrotation
						End Site
						{
							OFFSET 0.000000 -0.068021 927.813477
						}
					}
				}
			}
		}
	}
}
MOTION
Frames: 3
Frame Time: 0.033333
0.000006 104.270477 1.554256 0.000010 0.000003 -0.000113 -0.000005 10.181587 0.131522 0.000001 -0.000003 0.000084 -0.000000 9.893967 -1.470711 0.000001 0.000000 -0.000000 -0.000000 9.220802 -1.370642 0.000000 -0.000000 -0.000000 0.000001 16.740433 -2.049030 0.000000 -0.000000 -0.000000 0.000000 9.617859 1.685014 0.000000 0.000000 0.000000 0.000002 22.037384 7.501101 0.000000 -0.000000 0.000000 -4.569968 11.014880 -2.160881 0.000008 0.000001 -0.000038 -10.592869 -0.524772 -2.231884 76.036938 32.291758 -25.506332 -27.841513 0.000016 0.000557 -49.648406 107.930902 64.902609 -28.328819 -0.000007 0.000031 -0.000322 -0.000045 0.000006 -2.464369 -1.573885 2.682349 -38.248943 -150.364607 8.952275 -3.215217 -1.872480 1.924622 146.021043 33.883455 36.609186 -2.654963 -1.527889 1.513068 148.445760 27.338577 -30.504923 -2.018826 -1.152000 1.108060 -0.000001 -0.000001 0.000002 -9.108373 -0.517550 2.260125 99.757652 15.358099 -18.235142 -3.700058 0.000300 0.001516 98.593050 12.723949 -14.742798 -2.850079 0.000371 -0.000257 97.458651 10.194281 -11.605735 -2.772164 0.000001 -0.000020 -0.000001 -0.000001 0.000000 -9.532571 0.000276 0.000269 101.198576 14.872657 -18.227873 -3.700086 0.000329 0.003996 102.177779 11.189820 -13.722862 -2.950049 0.000333 -0.001767 103.765463 10.522509 -13.379164 -2.946648 0.000002 -0.000153 -0.000000 -0.000002 0.000000 -9.103674 -0.042764 -1.864818 102.126341 16.220562 -19.950863 -3.379340 0.000325 -0.000762 103.161381 8.772669 -11.069635 -2.889763 0.000353 0.000721 109.154196 6.550772 -9.264127 -2.638807 -0.000014 0.000943 -0.000000 -0.000000 -0.000001 -8.076746 -0.486401 -3.805984 93.416279 19.445009 -20.452925 -3.600032 0.000291 -0.003472 97.863879 8.519619 -9.364082 -2.100014 0.000316 -0.005430 102.571396 4.117854 -4.868286 -2.115757 -0.000053 -0.003679 -0.000000 -0.000000 -0.000002 4.570446 11.014691 -2.160851 -0.000018 0.000010 -0.000021 10.592524 -0.524534 -2.232399 67.019653 -64.470217 45.324483 27.841740 -0.000081 -0.000093 54.180370 -107.401542 69.703378 28.328835 -0.000014 0.000024 0.000018 -0.000090 -0.000001 2.466082 -1.576182 2.681885 -348.155342 117.811501 -63.260078 3.217801 -1.872021 1.916530 60.158592 133.515800 -117.957872 2.656067 -1.528728 1.514606 -110.656632 27.345991 46.259543 2.020884 -1.154086 1.115156 -0.000001 0.000004 0.000002 9.109076 -0.517752 2.260055 -153.832102 -21.038822 -77.244167 3.700023 -0.000025 -0.000272 166.866958 -26.865017 128.604293 2.850155 0.000145 0.000320 324.883795 -158.340027 -117.690170 2.774881 -0.000021 -0.000028 -0.000000 -0.000000 -0.000001 9.533260 0.000042 0.000137 179.549677 -13.685551 176.187038 3.700108 0.000256 -0.000269 495.311604 -15.186307 35.931354 2.950082 0.000234 -0.000195 465.031681 -12.456352 16.202064 2.952872 -0.000014 0.000063 0.000000 0.000000 0.000004 9.104504 -0.043036 -1.864995 176.765296 -13.396518 152.978151 3.150050 0.000311 -0.000023 496.383069 -5.130158 12.780454 2.949991 0.000278 -0.000106 288.281986 180.274538 180.381867 2.644325 0.000048 0.000071 -0.000001 0.000002 0.000000 8.077834 -0.486866 -3.806190 175.194598 -9.140728 131.479188 3.599930 0.000429 0.014636 497.776537 3.259839 -7.424755 2.099959 0.000349 0.007515 293.110192 171.946898 168.347211 2.125511 -0.000002 0.007504 0.000002 -0.000001 -0.000003 -8.207786 -6.751667 -1.599560 -0.077001 -0.000003 0.000080 -0.000002 -44.370110 0.345938 0.153719 -0.000000 -0.000000 0.000000 -44.423679 -3.043532 -0.076700 0.000000 -0.000002 -0.000006 -8.728667 10.710559 -0.000009 -0.000000 -0.000000 -0.000001 -0.000679 9.278123 0.000000 -0.000000 -0.000000 8.207792 -6.751710 -1.599556 -0.074518 -0.000003 0.000081 -0.000002 -44.370014 0.346960 0.148822 0.000002 0.000000 -0.000001 -44.423664 -3.044403 -0.074314 0.000000 -0.000002 -0.000004 -8.728671 10.710558 0.000007 -0.000000 -0.000000 0.000000 -0.000680 9.278137 -0.000000 0.000000 -0.000001 
0.000006 104.270477 1.554256 0.000010 0.000003 -0.000113 -0.000005 10.181587 0.131522 0.000001 -0.000003 0.000084 -0.000000 9.893967 -1.470711 0.000001 0.000000 -0.000000 -0.000000 9.220802 -1.370642 0.000000 -0.000000 -0.000000 0.000001 16.740433 -2.049030 0.000000 -0.000000 -0.000000 0.000000 9.617859 1.685014 0.000000 0.000000 0.000000 0.000002 22.037384 7.501101 0.000000 -0.000000 0.000000 -4.569968 11.014880 -2.160881 0.000008 0.000001 -0.000038 -10.592876 -0.524763 -2.231921 76.126823 27.082591 -21.360565 -27.841515 0.000013 0.000550 -49.753994 108.147556 65.234768 -28.328817 0.000020 0.000026 -0.000324 -0.000045 0.000009 -2.464395 -1.573897 2.682342 -36.498205 -149.430332 12.070803 -3.215235 -1.872495 1.924630 146.760029 34.072457 35.787521 -2.654955 -1.527879 1.513078 148.870789 27.148019 -31.693304 -2.018834 -1.152014 1.108070 -0.000003 -0.000001 0.000002 -9.108372 -0.517555 2.260124 100.955250 15.292618 -18.541278 -3.700060 0.000325 0.001510 98.772779 12.724392 -14.789641 -2.850080 0.000377 -0.000261 96.995284 10.086122 -11.390167 -2.772153 0.000001 -0.000020 -0.000001 -0.000001 0.000002 -9.532571 0.000269 0.000279 101.408440 14.244997 -17.533020 -3.700059 0.000338 0.004007 102.701825 10.902181 -13.493268 -2.950058 0.000324 -0.001763 103.726675 10.511858 -13.356430 -2.946619 0.000014 -0.000155 -0.000001 0.000003 0.000001 -9.103683 -0.042742 -1.864835 101.668814 15.397043 -18.790971 -3.379307 0.000334 -0.000779 103.650983 8.291016 -10.556014 -2.889740 0.000359 0.000696 109.040917 6.486368 -9.154702 -2.638818 0.000012 0.000946 -0.000000 0.000001 0.000000 -8.076752 -0.486388 -3.805986 94.417578 18.471864 -19.761269 -3.600027 0.000292 -0.003495 96.551486 7.274075 -7.762758 -2.099998 0.000329 -0.005450 100.250846 3.346672 -3.751838 -2.115761 -0.000039 -0.003677 -0.000001 -0.000003 -0.000003 4.570446 11.014691 -2.160851 -0.000018 0.000010 -0.000021 10.592514 -0.524531 -2.232390 66.288475 -62.650026 43.347471 27.841749 -0.000090 -0.000094 51.624134 -107.111716 66.448779 28.328831 -0.000029 0.000031 0.000019 -0.000090 0.000000 2.465984 -1.576177 2.681893 -391.780662 134.124384 -14.423471 3.217746 -1.872041 1.916525 16.771675 132.587373 -76.557760 2.656066 -1.528740 1.514608 -139.767226 30.656956 69.209740 2.020891 -1.154072 1.115147 0.000005 0.000004 0.000006 9.109060 -0.517809 2.260015 -161.327470 -19.517967 -92.586964 3.700137 0.000138 -0.000354 143.884123 -23.544220 65.224297 2.850083 0.000252 0.000250 296.396742 -165.333267 -156.551556 2.774888 -0.000030 -0.000027 -0.000001 0.000002 -0.000000 9.533218 0.000045 0.000133 180.880717 -14.693320 186.770731 3.700106 0.000231 -0.000297 492.729082 -16.068575 35.746574 2.950076 0.000229 -0.000190 466.283737 -12.768994 16.982031 2.952874 -0.000010 0.000048 -0.000000 0.000000 -0.000000 9.104658 -0.042898 -1.865051 163.349944 -15.617038 86.294796 3.150068 0.000311 -0.000032 490.076455 -8.375268 17.881575 2.950015 0.000276 -0.000097 286.392400 183.179226 184.250391 2.644315 0.000032 0.000058 0.000001 0.000003 -0.000002 8.077937 -0.486670 -3.806243 162.674588 -11.137992 68.857773 3.599947 0.000382 0.014600 486.540876 0.891978 -0.943093 2.099975 0.000315 0.007505 285.740663 173.932652 172.466539 2.125504 -0.000028 0.007511 0.000001 0.000004 -0.000003 -8.207786 -6.751667 -1.599560 -0.077001 -0.000003 0.000080 -0.000002 -44.370110 0.345938 0.153719 -0.000000 -0.000000 0.000000 -44.423679 -3.043532 -0.076700 0.000000 -0.000002 -0.000006 -8.728667 10.710559 -0.000009 -0.000000 -0.000000 -0.000001 -0.000679 9.278123 0.000000 -0.000000 -0.000000 8.207792 -6.751710 -1.599556 -0.074518 -0.000003 0.000081 -0.000002 -44.370014 0.346960 0.148822 0.000002 0.000000 -0.000001 -44.423664 -3.044403 -0.074314 0.000000 -0.000002 -0.000004 -8.728671 10.710558 0.000007 -0.000000 -0.000000 0.000000 -0.000680 9.278137 -0.000000 0.000000 -0.000001 
0.000006 104.270477 1.554256 0.000010 0.000003 -0.000113 -0.000005 10.181587 0.131522 0.000001 -0.000003 0.000084 -0.000000 9.893967 -1.470711 0.000001 0.000000 -0.000000 -0.000000 9.220802 -1.370642 0.000000 -0.000000 -0.000000 0.000001 16.740433 -2.049030 0.000000 -0.000000 -0.000000 0.000000 9.617859 1.685014 0.000000 0.000000 0.000000 0.000002 22.037384 7.501101 0.000000 -0.000000 0.000000 -4.569968 11.014880 -2.160881 0.000008 0.000001 -0.000038 -10.592875 -0.524750 -2.231908 76.180173 25.961706 -20.483809 -27.841516 0.000007 0.000541 -49.062000 108.988939 65.213232 -28.328821 0.000020 0.000018 -0.000323 -0.000046 0.000007 -2.464394 -1.573902 2.682343 -36.130075 -149.286393 12.732329 -3.215211 -1.872500 1.924603 145.949203 34.027029 38.147621 -2.654949 -1.527890 1.513069 148.908492 27.184061 -31.308802 -2.018834 -1.152010 1.108079 -0.000004 -0.000003 0.000002 -9.108376 -0.517548 2.260122 100.966841 15.414461 -18.691591 -3.700072 0.000314 0.001520 98.866326 13.026729 -15.165276 -2.850068 0.000379 -0.000277 97.435360 10.448377 -11.889725 -2.772187 -0.000001 -0.000021 -0.000001 0.000000 0.000000 -9.532581 0.000274 0.000273 101.494104 14.476403 -17.840770 -3.700075 0.000337 0.004013 102.844153 11.289454 -14.009772 -2.950046 0.000342 -0.001757 104.047017 10.849641 -13.863162 -2.946629 0.000001 -0.000152 0.000000 -0.000000 -0.000002 -9.103692 -0.042754 -1.864836 101.918368 15.791599 -19.354979 -3.379319 0.000329 -0.000767 103.832085 8.736367 -11.156691 -2.889755 0.000349 0.000686 109.106166 6.851524 -9.677270 -2.638803 -0.000028 0.000943 0.000000 -0.000001 0.000001 -8.076751 -0.486406 -3.805984 94.528152 18.945423 -20.308413 -3.600036 0.000278 -0.003490 96.539280 7.780357 -8.325458 -2.100022 0.000328 -0.005457 99.941076 3.829721 -4.304285 -2.115771 -0.000043 -0.003678 -0.000002 -0.000001 -0.000002 4.570446 11.014691 -2.160851 -0.000018 0.000010 -0.000021 10.592518 -0.524530 -2.232394 65.893724 -61.479694 42.155180 27.841745 -0.000085 -0.000096 48.589539 -107.113362 62.875450 28.328835 -0.000013 0.000031 0.000021 -0.000088 -0.000001 2.465893 -1.576147 2.681868 -413.380916 148.768022 22.159610 3.217667 -1.872066 1.916518 -15.072711 136.765509 -38.258656 2.656011 -1.528777 1.514627 -168.715317 29.181106 96.989417 2.020898 -1.154072 1.115148 0.000001 0.000004 0.000006 9.109107 -0.517977 2.259979 -173.888160 -23.959101 -151.788291 3.700121 0.000106 -0.000349 140.618172 -28.058282 69.891400 2.850082 0.000234 0.000215 292.614238 -164.154676 -156.422465 2.774873 -0.000029 -0.000035 0.000001 0.000001 -0.000003 9.533520 0.000256 0.000006 132.872260 -19.105521 42.178993 3.700041 0.000128 -0.000376 431.865403 -13.810818 10.030415 2.950032 0.000041 -0.000172 404.389765 -6.175902 2.522886 2.952859 -0.000030 0.000071 -0.000002 -0.000002 -0.000000 9.104630 -0.042756 -1.865175 128.418334 -16.685396 33.767441 3.149987 0.000178 -0.000132 429.846098 2.954775 -2.062268 2.949955 0.000096 -0.000124 226.205757 169.962851 175.709690 2.644320 0.000015 0.000052 -0.000000 -0.000005 -0.000000 8.077870 -0.486573 -3.806352 131.833197 -10.794153 25.130938 3.599911 0.000268 0.014547 451.922308 10.113609 -10.102081 2.099947 0.000179 0.007498 245.675129 163.295917 169.345320 2.125496 -0.000011 0.007510 0.000003 0.000000 0.000003 -8.207786 -6.751667 -1.599560 -0.077001 -0.000003 0.000080 -0.000002 -44.370110 0.345938 0.153719 -0.000000 -0.000000 0.000000 -44.423679 -3.043532 -0.076700 0.000000 -0.000002 -0.000006 -8.728667 10.710559 -0.000009 -0.000000 -0.000000 -0.000001 -0.000679 9.278123 0.000000 -0.000000 -0.000000 8.207792 -6.751710 -1.599556 -0.074518 -0.000003 0.000081 -0.000002 -44.370014 0.346960 0.148822 0.000002 0.000000 -0.000001 -44.423664 -3.044403 -0.074314 0.000000 -0.000002 -0.000004 -8.728671 10.710558 0.000007 -0.000000 -0.000000 0.000000 -0.000680 9.278137 -0.000000 0.000000 -0.000001 
